<?xml version="1.0" encoding="utf-8"?>
<svg xmlns="http://www.w3.org/2000/svg">
<symbol id="arrow-right"><path d="M20.508 0 32 11.5 20.508 23l-2.127-2.128 7.86-7.867H0v-3h26.243l-7.86-7.867z" fill="inherit" fill-rule="evenodd"/>
</symbol>
<symbol id="arrow-up"><path d="M142.51 98.01.1 220.599 15.28 237.1 160.1 114.623 304.92 237.1l15.18-16.502L177.69 98.011 160.1 82.9z"/>
</symbol>
<symbol id="chevron-left"><path d="M.661 5.55 4.492 10l1.296-1.099L2.43 5l3.358-3.901L4.492 0 .661 4.45.189 5z"/>
</symbol>
<symbol id="chevron-right"><path d="M5.315 4.45 1.484 0 .188 1.099 3.546 5 .188 8.901 1.484 10l3.831-4.45.472-.55z"/>
</symbol>
<symbol id="close-thin"><path fill="#2D608B" fill-rule="evenodd" d="m106.995 8 5.657 5.657-46.67 46.668 46.67 46.67-5.657 5.657-46.67-46.67-46.668 46.67L8 106.995l46.669-46.67L8 13.657 13.657 8l46.668 46.669L106.995 8z"/>
</symbol>
<symbol id="close"><path d="M296.03 41.471 177.5 160l118.53 118.529-17.501 17.5L160 177.502 41.471 296.03l-17.5-17.501L142.498 160 23.97 41.471l17.501-17.5L160 142.498 278.529 23.97l17.5 17.501z"/>
</symbol>
<symbol id="file-pdf"><path d="M13 0a3.348 3.348 0 0 0-3.333 3.333c0 2.274 1.263 5.097 2.593 7.75-1.04 3.256-2.22 6.744-3.729 9.688-3.089 1.212-5.844 2.113-7.5 3.448a.963.963 0 0 0-.073.083A3.377 3.377 0 0 0 0 26.667 3.348 3.348 0 0 0 3.333 30c.892 0 1.753-.333 2.375-.969a.79.79 0 0 0 .063-.052c1.219-1.456 2.657-4.096 3.937-6.51 2.952-1.161 6.046-2.343 9.032-3.052 2.179 1.756 5.332 2.916 7.927 2.916A3.348 3.348 0 0 0 30 19a3.348 3.348 0 0 0-3.333-3.333c-2.081 0-5.105.742-7.417 1.52-1.874-1.759-3.596-3.956-4.833-6.291.884-2.724 1.916-5.45 1.916-7.563A3.348 3.348 0 0 0 13 0zm0 2c.748 0 1.333.585 1.333 1.333 0 1-.535 2.843-1.156 4.823-.83-1.926-1.51-3.775-1.51-4.823C11.667 2.585 12.252 2 13 2zm.573 11.406a26.73 26.73 0 0 0 3.458 4.396c-1.977.54-3.907 1.233-5.812 1.958.92-2.076 1.657-4.232 2.354-6.354zm13.094 4.26c.748 0 1.333.586 1.333 1.334 0 .748-.585 1.333-1.333 1.333-1.502 0-3.637-.678-5.344-1.625 1.959-.554 4.097-1.041 5.344-1.041zM6.77 23.637c-.938 1.673-1.87 3.234-2.521 4.02-.223.213-.519.344-.917.344A1.32 1.32 0 0 1 2 26.667c0-.352.15-.702.354-.927.782-.606 2.483-1.33 4.417-2.105z"/>
</symbol>
<symbol id="menu"><path fill="#171A21" fill-rule="evenodd" d="M60 96v8H0v-8h60zm40-40v8H0v-8h100zm20-40v8H0v-8h120z"/>
</symbol>
<symbol id="minus"><path d="M13.781 1.988V.04H.219v1.948z"/>
</symbol>
<symbol id="play-outline" viewBox="0 0 60 60"><path fill="currentColor" d="M21.75 16.5v27L44.25 30zM57 30c0 14.93-12.07 27-27 27S3 44.93 3 30 15.07 3 30 3s27 12.07 27 27zM0 30c0 16.55 13.45 30 30 30s30-13.45 30-30S46.55 0 30 0 0 13.45 0 30z"/>
</symbol>
<symbol id="play" viewBox="0 0 494.942 494.942"><path d="m35.353 0 424.236 247.471L35.353 494.942z"/>
</symbol>
<symbol id="plus"><path d="M7.967 14V7.988h5.814V6.04H7.967V0H6.005v6.04H.219v1.948h5.786V14z"/>
</symbol>
<symbol id="search"><path fill-rule="evenodd" d="M50 0c27.614 0 50 22.386 50 50 0 12.495-4.583 23.919-12.16 32.683l33.727 33.727-5.657 5.657L82.143 88.3A49.794 49.794 0 0 1 50 100C22.386 100 0 77.614 0 50S22.386 0 50 0zm0 7.778C26.681 7.778 7.778 26.68 7.778 50 7.778 73.319 26.68 92.222 50 92.222c23.319 0 42.222-18.903 42.222-42.222C92.222 26.681 73.32 7.778 50 7.778z"/>
</symbol></svg>