<svg xmlns="http://www.w3.org/2000/svg" width="25" height="25"><path fill="currentcolor" d="M21.304 21.303h-3.708v-5.801c0-1.384-.023-3.164-1.926-3.164-1.93 0-2.224 1.508-2.224 3.065v5.9H9.743V9.373h3.554v1.63h.05c.495-.937 1.705-1.926 3.509-1.926 3.754 0 4.448 2.47 4.448 5.683v6.543zM5.561 7.743a2.15 2.15 0 1 1-.001-4.299 2.15 2.15 0 0 1 .001 4.298zm-1.857 13.56h3.712V9.373H3.704v11.93zM23.151 0H1.844C.827 0 0 .807 0 1.803v21.394c0 .995.827 1.804 1.844 1.804h21.307C24.17 25 25 24.192 25 23.197V1.803C25 .807 24.17 0 23.15 0z" fill-rule="evenodd"/></svg>