<svg width="21" height="21" xmlns="http://www.w3.org/2000/svg"><path d="M14.218 20.366c1.612-.077 3.041-.445 4.218-1.627 1.177-1.176 1.545-2.605 1.626-4.218.043-.762.067-2.22.07-3.736v-.829c-.003-1.516-.027-2.974-.07-3.736-.076-1.613-.445-3.041-1.626-4.218C17.259.825 15.83.456 14.218.375c-1.662-.094-6.644-.094-8.306 0C4.303.452 2.875.82 1.694 1.997.512 3.174.148 4.603.067 6.215c-.094 1.662-.094 6.644 0 8.306.077 1.613.445 3.042 1.627 4.218 1.181 1.177 2.605 1.546 4.218 1.627 1.662.094 6.644.094 8.306 0zm-4.151-1.743c-1.464 0-4.613.116-5.934-.405a3.397 3.397 0 0 1-1.914-1.913c-.525-1.325-.404-4.47-.404-5.934 0-1.465-.117-4.614.404-5.935a3.397 3.397 0 0 1 1.914-1.913c1.325-.526 4.47-.405 5.934-.405 1.464 0 4.613-.116 5.934.405a3.397 3.397 0 0 1 1.914 1.913c.525 1.326.404 4.47.404 5.935 0 1.464.121 4.613-.404 5.934A3.397 3.397 0 0 1 16 18.218c-1.325.526-4.47.405-5.934.405zM15.44 6.202a1.204 1.204 0 1 0 0-2.408 1.204 1.204 0 0 0 0 2.408zm-5.373 9.33a5.153 5.153 0 0 0 5.161-5.161 5.153 5.153 0 0 0-5.161-5.162 5.153 5.153 0 0 0-5.162 5.162 5.153 5.153 0 0 0 5.162 5.161zm0-1.806a3.362 3.362 0 0 1-3.356-3.355 3.359 3.359 0 0 1 3.356-3.356 3.359 3.359 0 0 1 3.356 3.356c0 1.85-1.51 3.355-3.356 3.355z" fill="currentColor"/></svg>